<svg width="153" height="31" viewBox="0 0 153 31" fill="none" xmlns="http://www.w3.org/2000/svg">
<rect x="105" y="0.5" width="47.7273" height="30" fill="#6944D8"/>
<path d="M8.26909 23.8273C6.69818 23.8273 5.34182 23.4855 4.2 22.8018C3.06545 22.1182 2.18909 21.1618 1.57091 19.9327C0.96 18.7036 0.654545 17.2745 0.654545 15.6455C0.654545 14.0164 0.96 12.5873 1.57091 11.3582C2.18909 10.1291 3.06545 9.17273 4.2 8.48909C5.34182 7.80545 6.69818 7.46364 8.26909 7.46364C10.0727 7.46364 11.5855 7.91091 12.8073 8.80545C14.0364 9.7 14.9018 10.9109 15.4036 12.4382L12.4145 13.2673C12.1236 12.3145 11.6327 11.5764 10.9418 11.0527C10.2509 10.5218 9.36 10.2564 8.26909 10.2564C7.27273 10.2564 6.44 10.4782 5.77091 10.9218C5.10909 11.3655 4.61091 11.9909 4.27636 12.7982C3.94182 13.6055 3.77455 14.5545 3.77455 15.6455C3.77455 16.7364 3.94182 17.6855 4.27636 18.4927C4.61091 19.3 5.10909 19.9255 5.77091 20.3691C6.44 20.8127 7.27273 21.0345 8.26909 21.0345C9.36 21.0345 10.2509 20.7691 10.9418 20.2382C11.6327 19.7073 12.1236 18.9691 12.4145 18.0236L15.4036 18.8527C14.9018 20.38 14.0364 21.5909 12.8073 22.4855C11.5855 23.38 10.0727 23.8273 8.26909 23.8273ZM21.0784 23.8273C20.2348 23.8273 19.5184 23.6673 18.9293 23.3473C18.3475 23.02 17.9039 22.5873 17.5984 22.0491C17.3002 21.5036 17.1511 20.9036 17.1511 20.2491C17.1511 19.7036 17.2348 19.2055 17.402 18.7545C17.5693 18.3036 17.8384 17.9073 18.2093 17.5655C18.5875 17.2164 19.093 16.9255 19.7257 16.6927C20.162 16.5327 20.682 16.3909 21.2857 16.2673C21.8893 16.1436 22.573 16.0273 23.3366 15.9182C24.1002 15.8018 24.9402 15.6745 25.8566 15.5364L24.7875 16.1255C24.7875 15.4273 24.6202 14.9145 24.2857 14.5873C23.9511 14.26 23.3911 14.0964 22.6057 14.0964C22.1693 14.0964 21.7148 14.2018 21.242 14.4127C20.7693 14.6236 20.4384 14.9982 20.2493 15.5364L17.5657 14.6855C17.8639 13.7109 18.4239 12.9182 19.2457 12.3073C20.0675 11.6964 21.1875 11.3909 22.6057 11.3909C23.6457 11.3909 24.5693 11.5509 25.3766 11.8709C26.1839 12.1909 26.7948 12.7436 27.2093 13.5291C27.442 13.9655 27.5802 14.4018 27.6239 14.8382C27.6675 15.2745 27.6893 15.7618 27.6893 16.3V23.5H25.093V21.0782L25.4639 21.58C24.8893 22.3727 24.2675 22.9473 23.5984 23.3036C22.9366 23.6527 22.0966 23.8273 21.0784 23.8273ZM21.7111 21.4927C22.2566 21.4927 22.7148 21.3982 23.0857 21.2091C23.4639 21.0127 23.762 20.7909 23.9802 20.5436C24.2057 20.2964 24.3584 20.0891 24.4384 19.9218C24.5911 19.6018 24.6784 19.2309 24.7002 18.8091C24.7293 18.38 24.7439 18.0236 24.7439 17.74L25.6166 17.9582C24.7366 18.1036 24.0239 18.2273 23.4784 18.3291C22.933 18.4236 22.493 18.5109 22.1584 18.5909C21.8239 18.6709 21.5293 18.7582 21.2748 18.8527C20.9839 18.9691 20.7475 19.0964 20.5657 19.2345C20.3911 19.3655 20.2602 19.5109 20.173 19.6709C20.093 19.8309 20.053 20.0091 20.053 20.2055C20.053 20.4745 20.1184 20.7073 20.2493 20.9036C20.3875 21.0927 20.5802 21.2382 20.8275 21.34C21.0748 21.4418 21.3693 21.4927 21.7111 21.4927ZM36.3077 23.8273C35.1368 23.8273 34.1586 23.5545 33.3731 23.0091C32.5877 22.4636 31.9949 21.7218 31.5949 20.7836C31.2022 19.8455 31.0059 18.7873 31.0059 17.6091C31.0059 16.4309 31.2022 15.3727 31.5949 14.4345C31.9877 13.4964 32.5659 12.7545 33.3295 12.2091C34.0931 11.6636 35.0349 11.3909 36.1549 11.3909C37.2822 11.3909 38.264 11.66 39.1004 12.1982C39.9368 12.7364 40.584 13.4745 41.0422 14.4127C41.5077 15.3436 41.7404 16.4091 41.7404 17.6091C41.7404 18.7873 41.5113 19.8455 41.0531 20.7836C40.6022 21.7218 39.9695 22.4636 39.1549 23.0091C38.3404 23.5545 37.3913 23.8273 36.3077 23.8273ZM30.504 28.7364V11.7182H33.1222V19.7909H33.4931V28.7364H30.504ZM35.8277 21.1873C36.4677 21.1873 36.9913 21.0273 37.3986 20.7073C37.8059 20.3873 38.1077 19.9582 38.304 19.42C38.5004 18.8745 38.5986 18.2709 38.5986 17.6091C38.5986 16.9545 38.4968 16.3582 38.2931 15.82C38.0895 15.2745 37.7731 14.8418 37.344 14.5218C36.9222 14.1945 36.3804 14.0309 35.7186 14.0309C35.1004 14.0309 34.5986 14.18 34.2131 14.4782C33.8349 14.7764 33.5586 15.1945 33.384 15.7327C33.2095 16.2709 33.1222 16.8964 33.1222 17.6091C33.1222 18.3218 33.2095 18.9473 33.384 19.4855C33.5586 20.0236 33.8422 20.4418 34.2349 20.74C34.6349 21.0382 35.1659 21.1873 35.8277 21.1873ZM47.4136 23.8273C46.57 23.8273 45.8536 23.6673 45.2645 23.3473C44.6827 23.02 44.2391 22.5873 43.9336 22.0491C43.6355 21.5036 43.4864 20.9036 43.4864 20.2491C43.4864 19.7036 43.57 19.2055 43.7373 18.7545C43.9045 18.3036 44.1736 17.9073 44.5445 17.5655C44.9227 17.2164 45.4282 16.9255 46.0609 16.6927C46.4973 16.5327 47.0173 16.3909 47.6209 16.2673C48.2245 16.1436 48.9082 16.0273 49.6718 15.9182C50.4355 15.8018 51.2755 15.6745 52.1918 15.5364L51.1227 16.1255C51.1227 15.4273 50.9555 14.9145 50.6209 14.5873C50.2864 14.26 49.7264 14.0964 48.9409 14.0964C48.5045 14.0964 48.05 14.2018 47.5773 14.4127C47.1045 14.6236 46.7736 14.9982 46.5845 15.5364L43.9009 14.6855C44.1991 13.7109 44.7591 12.9182 45.5809 12.3073C46.4027 11.6964 47.5227 11.3909 48.9409 11.3909C49.9809 11.3909 50.9045 11.5509 51.7118 11.8709C52.5191 12.1909 53.13 12.7436 53.5446 13.5291C53.7773 13.9655 53.9155 14.4018 53.9591 14.8382C54.0027 15.2745 54.0245 15.7618 54.0245 16.3V23.5H51.4282V21.0782L51.7991 21.58C51.2245 22.3727 50.6027 22.9473 49.9336 23.3036C49.2718 23.6527 48.4318 23.8273 47.4136 23.8273ZM48.0464 21.4927C48.5918 21.4927 49.05 21.3982 49.4209 21.2091C49.7991 21.0127 50.0973 20.7909 50.3155 20.5436C50.5409 20.2964 50.6936 20.0891 50.7736 19.9218C50.9264 19.6018 51.0136 19.2309 51.0355 18.8091C51.0645 18.38 51.0791 18.0236 51.0791 17.74L51.9518 17.9582C51.0718 18.1036 50.3591 18.2273 49.8136 18.3291C49.2682 18.4236 48.8282 18.5109 48.4936 18.5909C48.1591 18.6709 47.8645 18.7582 47.61 18.8527C47.3191 18.9691 47.0827 19.0964 46.9009 19.2345C46.7264 19.3655 46.5955 19.5109 46.5082 19.6709C46.4282 19.8309 46.3882 20.0091 46.3882 20.2055C46.3882 20.4745 46.4536 20.7073 46.5845 20.9036C46.7227 21.0927 46.9155 21.2382 47.1627 21.34C47.41 21.4418 47.7045 21.4927 48.0464 21.4927ZM56.8611 23.5V7.79091H63.1447C64.2647 7.79091 65.1702 8.01636 65.8611 8.46727C66.552 8.91091 67.0574 9.47091 67.3774 10.1473C67.6974 10.8236 67.8574 11.5073 67.8574 12.1982C67.8574 13.0782 67.6574 13.8091 67.2574 14.3909C66.8647 14.9727 66.3229 15.3618 65.632 15.5582V15.0127C66.6138 15.2164 67.3484 15.6709 67.8356 16.3764C68.3302 17.0818 68.5774 17.8709 68.5774 18.7436C68.5774 19.6818 68.4029 20.5073 68.0538 21.22C67.712 21.9327 67.1884 22.4927 66.4829 22.9C65.7774 23.3 64.8902 23.5 63.8211 23.5H56.8611ZM59.872 20.7073H63.5156C63.9156 20.7073 64.272 20.6236 64.5847 20.4564C64.8974 20.2818 65.1411 20.0418 65.3156 19.7364C65.4974 19.4236 65.5884 19.0564 65.5884 18.6345C65.5884 18.2636 65.512 17.9327 65.3593 17.6418C65.2065 17.3509 64.9738 17.1218 64.6611 16.9545C64.3556 16.78 63.9738 16.6927 63.5156 16.6927H59.872V20.7073ZM59.872 13.9218H63.1011C63.4356 13.9218 63.7338 13.8636 63.9956 13.7473C64.2574 13.6309 64.4647 13.4527 64.6174 13.2127C64.7702 12.9655 64.8465 12.6491 64.8465 12.2636C64.8465 11.7836 64.6974 11.38 64.3993 11.0527C64.1011 10.7255 63.6684 10.5618 63.1011 10.5618H59.872V13.9218ZM76.2295 23.8273C75.0222 23.8273 73.9568 23.5691 73.0331 23.0527C72.1168 22.5291 71.3968 21.8127 70.8731 20.9036C70.3568 19.9873 70.0986 18.94 70.0986 17.7618C70.0986 16.4745 70.3531 15.3545 70.8622 14.4018C71.3713 13.4491 72.0731 12.7109 72.9677 12.1873C73.8622 11.6564 74.8913 11.3909 76.0549 11.3909C77.2913 11.3909 78.3422 11.6818 79.2077 12.2636C80.0731 12.8455 80.7131 13.6636 81.1277 14.7182C81.5422 15.7727 81.6877 17.0127 81.564 18.4382H78.6295V17.3473C78.6295 16.1473 78.4368 15.2855 78.0513 14.7618C77.6731 14.2309 77.0513 13.9655 76.1859 13.9655C75.1749 13.9655 74.4295 14.2745 73.9495 14.8927C73.4768 15.5036 73.2404 16.4091 73.2404 17.6091C73.2404 18.7073 73.4768 19.5582 73.9495 20.1618C74.4295 20.7582 75.1313 21.0564 76.0549 21.0564C76.6368 21.0564 77.1349 20.9291 77.5495 20.6745C77.964 20.42 78.2804 20.0527 78.4986 19.5727L81.4659 20.4236C81.0222 21.5 80.3204 22.3364 79.3604 22.9327C78.4077 23.5291 77.364 23.8273 76.2295 23.8273ZM72.324 18.4382V16.2345H80.1349V18.4382H72.324ZM91.0964 23.5C90.2818 23.6527 89.4818 23.7182 88.6964 23.6964C87.9182 23.6818 87.22 23.5473 86.6018 23.2927C85.9909 23.0309 85.5255 22.6127 85.2055 22.0382C84.9145 21.5 84.7618 20.9545 84.7473 20.4018C84.7327 19.8418 84.7255 19.2091 84.7255 18.5036V8.44545H87.6927V18.3291C87.6927 18.7873 87.6964 19.2018 87.7036 19.5727C87.7182 19.9364 87.7945 20.2273 87.9327 20.4455C88.1945 20.86 88.6127 21.0855 89.1873 21.1218C89.7618 21.1582 90.3982 21.1291 91.0964 21.0345V23.5ZM82.7182 14.0091V11.7182H91.0964V14.0091H82.7182ZM96.9946 23.8273C96.151 23.8273 95.4346 23.6673 94.8455 23.3473C94.2637 23.02 93.8201 22.5873 93.5146 22.0491C93.2164 21.5036 93.0673 20.9036 93.0673 20.2491C93.0673 19.7036 93.151 19.2055 93.3182 18.7545C93.4855 18.3036 93.7546 17.9073 94.1255 17.5655C94.5037 17.2164 95.0091 16.9255 95.6419 16.6927C96.0782 16.5327 96.5982 16.3909 97.2019 16.2673C97.8055 16.1436 98.4891 16.0273 99.2528 15.9182C100.016 15.8018 100.856 15.6745 101.773 15.5364L100.704 16.1255C100.704 15.4273 100.536 14.9145 100.202 14.5873C99.8673 14.26 99.3073 14.0964 98.5219 14.0964C98.0855 14.0964 97.631 14.2018 97.1582 14.4127C96.6855 14.6236 96.3546 14.9982 96.1655 15.5364L93.4819 14.6855C93.7801 13.7109 94.3401 12.9182 95.1619 12.3073C95.9837 11.6964 97.1037 11.3909 98.5219 11.3909C99.5619 11.3909 100.486 11.5509 101.293 11.8709C102.1 12.1909 102.711 12.7436 103.126 13.5291C103.358 13.9655 103.496 14.4018 103.54 14.8382C103.584 15.2745 103.606 15.7618 103.606 16.3V23.5H101.009V21.0782L101.38 21.58C100.806 22.3727 100.184 22.9473 99.5146 23.3036C98.8528 23.6527 98.0128 23.8273 96.9946 23.8273ZM97.6273 21.4927C98.1728 21.4927 98.631 21.3982 99.0019 21.2091C99.3801 21.0127 99.6782 20.7909 99.8964 20.5436C100.122 20.2964 100.275 20.0891 100.355 19.9218C100.507 19.6018 100.595 19.2309 100.616 18.8091C100.646 18.38 100.66 18.0236 100.66 17.74L101.533 17.9582C100.653 18.1036 99.9401 18.2273 99.3946 18.3291C98.8491 18.4236 98.4091 18.5109 98.0746 18.5909C97.7401 18.6709 97.4455 18.7582 97.191 18.8527C96.9001 18.9691 96.6637 19.0964 96.4819 19.2345C96.3073 19.3655 96.1764 19.5109 96.0891 19.6709C96.0091 19.8309 95.9691 20.0091 95.9691 20.2055C95.9691 20.4745 96.0346 20.7073 96.1655 20.9036C96.3037 21.0927 96.4964 21.2382 96.7437 21.34C96.991 21.4418 97.2855 21.4927 97.6273 21.4927Z" fill="#6944D8"/>
<path d="M106.442 23.5V7.79091H113.075C113.228 7.79091 113.431 7.79818 113.686 7.81273C113.948 7.82 114.18 7.84182 114.384 7.87818C115.322 8.02364 116.089 8.33273 116.686 8.80545C117.289 9.27818 117.733 9.87454 118.017 10.5945C118.3 11.3073 118.442 12.1036 118.442 12.9836C118.442 13.8636 118.297 14.6636 118.006 15.3836C117.722 16.0964 117.278 16.6891 116.675 17.1618C116.078 17.6345 115.315 17.9436 114.384 18.0891C114.18 18.1182 113.948 18.14 113.686 18.1545C113.424 18.1691 113.22 18.1764 113.075 18.1764H109.409V23.5H106.442ZM109.409 15.4055H112.944C113.097 15.4055 113.264 15.3982 113.446 15.3836C113.628 15.3691 113.795 15.34 113.948 15.2964C114.348 15.1873 114.657 15.0055 114.875 14.7509C115.093 14.4891 115.242 14.2018 115.322 13.8891C115.409 13.5691 115.453 13.2673 115.453 12.9836C115.453 12.7 115.409 12.4018 115.322 12.0891C115.242 11.7691 115.093 11.4818 114.875 11.2273C114.657 10.9655 114.348 10.78 113.948 10.6709C113.795 10.6273 113.628 10.5982 113.446 10.5836C113.264 10.5691 113.097 10.5618 112.944 10.5618H109.409V15.4055ZM128.661 23.5V17.9364C128.661 17.6673 128.647 17.3255 128.618 16.9109C128.589 16.4891 128.498 16.0673 128.345 15.6455C128.192 15.2236 127.941 14.8709 127.592 14.5873C127.251 14.3036 126.763 14.1618 126.131 14.1618C125.876 14.1618 125.603 14.2018 125.312 14.2818C125.021 14.3618 124.749 14.5182 124.494 14.7509C124.24 14.9764 124.029 15.3109 123.861 15.7545C123.701 16.1982 123.621 16.7873 123.621 17.5218L121.92 16.7145C121.92 15.7836 122.109 14.9109 122.487 14.0964C122.865 13.2818 123.432 12.6236 124.189 12.1218C124.952 11.62 125.912 11.3691 127.069 11.3691C127.992 11.3691 128.745 11.5255 129.327 11.8382C129.909 12.1509 130.36 12.5473 130.68 13.0273C131.007 13.5073 131.24 14.0091 131.378 14.5327C131.516 15.0491 131.6 15.5218 131.629 15.9509C131.658 16.38 131.672 16.6927 131.672 16.8891V23.5H128.661ZM120.611 23.5V7.79091H123.251V15.8636H123.621V23.5H120.611ZM134.721 10.0818V7.46364H137.689V10.0818H134.721ZM134.721 23.5V11.7182H137.689V23.5H134.721ZM144.515 20.5545V16.78H140.741V14.4891H144.515V10.7364H146.806V14.4891H150.559V16.78H146.806V20.5545H144.515Z" fill="white"/>
</svg>
